<svg width="115" height="26" viewBox="0 0 115 26" fill="none" xmlns="http://www.w3.org/2000/svg">
<path d="M13.7 9.07258L9.2 18.6492H7.6L5.7 9.07258L3.7 23.3871L3.9 24.8992H0L0.6 23.3871L3.7 1.5121L3.5 0H7L9.3 11.996L15 0H18.5L17.9 1.5121L14.8 23.3871L15 24.8992H11.1L11.7 23.3871L13.7 9.07258Z" fill="white"/>
<path d="M28.2 22.7823L28.6 25H24.7L25.1 23.9919L25 19.1532L24.6 18.75H22L21.5 19.1532L20 23.9919L20.1 25H16.2L17.2 22.8831L23.7999 1.41129V0H28L27.5 1.41129L28.2 22.7823ZM22.6 15.3226L22.9 15.625H24.6L25 15.4234L24.9 10.2823L25 7.45968L24.4 10.2823L22.6 15.3226Z" fill="white"/>
<path d="M33.6 23.4879L33.8 25H29.9L30.5 23.4879L33.6 1.6129L33.4 0H36.9L38.5 13.2056L38.8 15.4234L38.9 13.2056L40.6 1.6129L40.3 0H44.2L43.6 1.5121L40.5 23.3871L40.7 24.8992H37.2L35.6 11.6935L35.3 9.47581L35.2 11.6935L33.6 23.4879Z" fill="white"/>
<path d="M51.9 0H55.7999L55.2 1.5121L52 23.4879L50.2 25H44L42.7 23.4879L43.4 18.75L43.2999 17.1371H47.2L46.5999 18.6492L46.2 21.4718L46.5 21.875H48.9L49.2999 21.4718L52 1.5121L51.9 0Z" fill="white"/>
<path d="M65.5 22.7823L65.9 25H62L62.4 23.9919L62.3 19.1532L61.9 18.75H59.2L58.7 19.1532L57.3 23.9919L57.4 25H53.5L54.5 22.8831L61.1 1.41129V0H65.3L64.8 1.41129L65.5 22.7823ZM59.9 15.3226L60.2 15.625H61.9L62.3 15.4234L62 10.2823L62.1 7.45968L61.5 10.2823L59.9 15.3226Z" fill="white"/>
<path d="M71 25H67.1L67.7 23.4879L70.8 1.6129L70.7 0H78.8L80.1 1.5121L78.6 12.5L76.8 14.1129V23.4879L77.1 25.1008H73.2L73.7 23.5887V14.4153L73.5 14.1129H72.5L72.1 14.5161L70.8 23.5887L71 25ZM73 10.9879H75.4L75.8 10.5847L76.8 3.52823L76.5 3.125H74L73.6 3.52823L72.6 10.5847L73 10.9879Z" fill="white"/>
<path d="M83 25H79.1L79.7 23.4879L82.8 1.6129L82.6 0H90.7L92 1.5121L90.5 12.5L88.8 14.1129V23.4879L89.1 25.1008H85.2L85.7 23.5887V14.4153L85.5 14.1129H84.5L84.1 14.5161L82.8 23.5887L83 25ZM84.9 10.9879H87.3L87.7 10.5847L88.7 3.52823L88.4 3.125H86L85.6 3.52823L84.6 10.5847L84.9 10.9879Z" fill="white"/>
<path d="M100.4 25H91.1L91.7 23.4879L94.8 1.6129L94.6 0H103.9L104 3.42742L102.4 3.02419H98L97.6 3.42742L96.6 10.4839L96.9 10.8871H98.1L99.7 10.4839L99.1 14.4153L97.6 14.0121H96.4L96 14.4153L95 21.4718L95.3 21.875H99.7L101.4 21.4718L100.4 25Z" fill="white"/>
<path d="M112.2 21.4718L111.1 25H102.2L102.7 21.875L111.1 3.125H106.7L105 3.52823L106.1 0H115L114.5 3.125L106.1 21.875H110.5L112.2 21.4718Z" fill="white"/>
</svg>
