<?xml version="1.0" standalone="no"?>
<!DOCTYPE svg PUBLIC "-//W3C//DTD SVG 20010904//EN"
 "http://www.w3.org/TR/2001/REC-SVG-20010904/DTD/svg10.dtd">
<svg version="1.0" xmlns="http://www.w3.org/2000/svg"
 width="260.000000pt" height="260.000000pt" viewBox="0 0 260.000000 260.000000"
 preserveAspectRatio="xMidYMid meet">
<metadata>
Created by potrace 1.11, written by Peter Selinger 2001-2013
</metadata>
<g transform="translate(0.000000,260.000000) scale(0.100000,-0.100000)"
fill="#000000" stroke="none">
<path d="M1432 2538 c-7 -7 -12 -9 -12 -5 0 3 -15 -7 -32 -23 -73 -65 -142
-120 -150 -120 -5 0 -6 -4 -3 -10 3 -5 1 -10 -4 -10 -10 0 -211 -196 -211
-205 0 -3 -8 -13 -17 -23 -45 -45 -102 -123 -175 -237 -42 -65 -136 -285 -122
-285 2 0 0 -8 -5 -19 -6 -10 -11 -34 -13 -52 -1 -19 -5 -38 -8 -44 -8 -12 -5
-198 4 -240 15 -66 47 -143 85 -200 4 -5 13 -23 20 -40 l13 -30 -24 20 c-12
11 -25 22 -28 25 -3 3 -35 31 -73 64 -71 62 -123 128 -142 183 -11 33 -12 33
-22 11 -15 -32 -25 -60 -30 -83 -2 -10 -7 -22 -11 -25 -4 -3 -8 -10 -9 -16 -7
-39 -12 -64 -21 -102 -11 -47 -9 -279 3 -327 4 -16 8 -37 10 -45 2 -8 4 -15 5
-15 1 0 3 -9 5 -20 6 -35 17 -68 38 -115 6 -14 11 -27 12 -30 1 -3 10 -23 20
-45 10 -22 19 -42 19 -45 1 -3 9 -16 17 -30 9 -14 31 -50 50 -80 18 -30 37
-57 41 -58 5 -2 8 -8 8 -13 0 -11 10 -24 57 -73 18 -18 29 -36 26 -40 -3 -3 0
-6 8 -6 8 0 25 -13 39 -30 14 -16 30 -30 37 -30 7 0 13 -3 13 -7 0 -10 63 -53
78 -53 7 0 5 11 -6 30 -9 16 -20 30 -24 30 -5 0 -8 4 -8 9 0 5 -10 30 -22 57
-12 27 -21 53 -20 58 2 4 -2 13 -7 20 -23 28 -32 199 -14 279 21 93 68 165
144 223 22 16 51 25 43 13 -10 -17 -6 -117 6 -140 37 -68 139 -106 209 -76 52
22 98 90 96 142 -2 46 -32 139 -56 168 -11 15 -18 27 -15 27 4 0 -140 205
-172 245 -21 25 -87 173 -90 200 -2 17 -7 31 -10 32 -7 3 -6 124 1 153 10 43
31 97 45 113 8 9 12 17 8 17 -13 0 80 114 130 159 112 102 108 99 95 74 -6
-13 -9 -23 -6 -23 3 0 -1 -13 -9 -29 -8 -15 -18 -41 -22 -57 -10 -39 -11 -218
-2 -224 4 -3 9 -15 11 -25 4 -22 23 -68 40 -100 6 -11 19 -36 29 -55 10 -19
18 -30 18 -25 1 6 6 0 13 -11 11 -20 91 -116 127 -153 9 -9 28 -32 42 -51 14
-19 35 -44 45 -55 77 -80 204 -301 228 -395 1 -3 5 -13 9 -23 5 -9 6 -26 3
-37 -3 -11 -1 -18 3 -15 5 3 9 -3 9 -12 0 -10 0 -54 1 -98 2 -104 -11 -180
-47 -262 -9 -21 -16 -41 -15 -45 1 -5 -2 -8 -8 -8 -5 0 -10 -7 -10 -15 0 -8
-5 -15 -11 -15 -5 0 -8 -4 -5 -8 3 -5 -8 -23 -24 -40 -16 -18 -26 -32 -22 -32
4 0 0 -5 -8 -10 -13 -8 -12 -10 3 -10 9 0 17 5 17 12 0 6 3 9 6 5 4 -3 12 -1
20 6 7 7 25 21 40 32 15 11 40 33 55 48 16 15 29 25 29 21 0 -3 16 14 36 38
20 23 40 45 45 46 5 2 9 9 9 16 0 7 9 21 20 31 11 10 17 22 14 26 -3 5 -1 9 4
9 18 0 93 162 107 233 3 10 7 27 10 37 23 73 23 251 0 390 -8 50 -37 138 -71
215 -10 22 -18 42 -19 45 -4 13 -30 66 -36 70 -7 5 -33 52 -34 60 -1 6 -37 63
-45 70 -3 3 -11 17 -19 33 -8 15 -18 27 -23 27 -4 0 -8 5 -8 10 0 6 -28 51
-62 100 -35 50 -67 100 -73 110 -5 11 -13 20 -17 20 -5 0 -8 6 -8 14 0 8 -3
16 -7 18 -8 3 -67 89 -68 98 0 3 -17 33 -38 68 -20 35 -37 67 -37 71 0 5 -7
22 -15 37 -8 16 -15 37 -15 47 0 9 -4 17 -8 17 -4 0 -8 8 -8 18 -1 9 -5 35 -9
57 -10 44 -11 288 -2 348 6 42 6 42 -11 25z"/>
<path d="M1932 1984 c-12 -8 -22 -13 -22 -11 0 3 -17 -12 -39 -32 -45 -42 -80
-111 -87 -172 -3 -24 -7 -47 -10 -51 -3 -4 -2 -8 3 -8 4 0 8 -21 8 -48 0 -32
7 -58 23 -82 12 -19 27 -42 32 -50 5 -8 30 -45 54 -82 25 -38 43 -68 40 -68
-3 0 3 -12 14 -28 21 -29 102 -197 107 -222 2 -8 4 -17 5 -20 1 -3 2 -8 1 -12
0 -5 4 -8 11 -8 6 0 9 -3 5 -6 -3 -3 -1 -18 5 -33 41 -106 54 -362 25 -491
-10 -41 -19 -76 -24 -90 -4 -8 -7 -17 -7 -20 -1 -3 -5 -11 -10 -18 -4 -7 -6
-16 -2 -19 9 -9 60 38 107 99 24 32 52 67 61 79 10 12 15 26 12 30 -3 5 -1 9
3 9 10 0 34 65 54 140 12 46 20 240 10 240 -4 0 -7 15 -8 33 -2 42 -50 181
-80 232 -13 22 -26 48 -30 58 -3 9 -9 17 -14 17 -5 0 -9 6 -9 13 0 8 -9 22
-20 32 -11 10 -20 22 -20 27 0 5 -6 15 -12 23 -23 23 -48 55 -48 60 0 2 -18
28 -40 57 -22 29 -40 59 -40 66 0 6 -3 12 -7 12 -13 0 -42 81 -50 140 -9 59
-2 125 22 201 8 23 6 23 -23 3z"/>
<path d="M244 820 c7 -108 11 -132 25 -178 5 -18 10 -35 10 -37 2 -21 16 -62
24 -72 5 -7 7 -13 4 -13 -10 0 43 -112 74 -158 16 -24 29 -45 29 -48 0 -11
109 -126 156 -164 77 -63 233 -144 262 -137 15 3 15 5 -2 12 -21 9 -105 92
-154 151 -38 46 -122 180 -122 193 0 5 -3 11 -7 13 -10 4 -53 89 -53 104 0 6
-7 17 -15 24 -8 7 -13 16 -10 20 3 5 -1 24 -9 42 -15 34 -29 69 -30 78 -1 3
-22 27 -48 54 -26 27 -50 58 -54 68 -3 10 -10 18 -15 18 -5 0 -9 7 -9 15 0 8
-4 15 -8 15 -6 0 -32 52 -36 72 0 3 -5 10 -10 15 -5 4 -6 -33 -2 -87z"/>
<path d="M2287 516 c-27 -29 -63 -61 -80 -71 -18 -10 -34 -21 -37 -25 -8 -11
-102 -40 -111 -34 -5 3 -14 -5 -19 -18 -6 -13 -19 -36 -30 -53 -11 -16 -23
-37 -27 -45 -23 -52 -199 -240 -225 -240 -4 0 -8 -4 -8 -10 0 -14 43 -13 58 2
7 7 12 8 12 3 0 -6 3 -6 8 0 4 6 38 26 77 45 105 52 216 146 310 261 21 26 85
127 85 135 0 2 11 27 24 54 13 28 21 50 18 50 -4 -1 -29 -25 -55 -54z"/>
</g>
</svg>
